<svg xmlns="http://www.w3.org/2000/svg" viewBox="0 0 800 800" role="img" aria-labelledby="title desc">
  <title id="title">Classic glove hand</title>
  <desc id="desc">Hardcoded default glove hand with black outline</desc>
  <g fill="#dddddd" stroke="#000000" stroke-width="22" stroke-linejoin="round" stroke-linecap="round">
    <ellipse cx="300" cy="195" rx="92" ry="175" transform="rotate(-20 300 195)" />
    <ellipse cx="505" cy="185" rx="84" ry="165" transform="rotate(26 505 185)" />
    <ellipse cx="155" cy="365" rx="170" ry="92" transform="rotate(20 155 365)" />
    <ellipse cx="150" cy="615" rx="120" ry="88" transform="rotate(-18 150 615)" />
    <path d="M300 690
             C245 642 160 575 118 540
             C58 490 30 438 30 370
             C30 295 78 244 170 244
             C231 244 285 271 332 312
             C348 214 412 170 498 176
             C574 181 641 244 664 324
             C744 336 780 390 770 461
             C760 532 704 595 613 647
             C569 672 525 687 482 695
             C477 747 444 775 396 773
             C355 771 321 744 300 690 Z"/>
  </g>
  <g fill="#000000">
    <ellipse cx="460" cy="430" rx="58" ry="18" transform="rotate(38 460 430)" />
    <ellipse cx="508" cy="385" rx="56" ry="17" transform="rotate(57 508 385)" />
    <ellipse cx="413" cy="477" rx="54" ry="16" transform="rotate(21 413 477)" />
    <path d="M322 315 L356 347 L329 370 L296 338 Z" />
  </g>
</svg>
