<svg xmlns="http://www.w3.org/2000/svg" viewBox="0 0 220 220" role="img" aria-labelledby="title desc">
  <title id="title">Glove hand</title>
  <desc id="desc">Stylized glove icon for domino hand animation</desc>
  <defs>
    <linearGradient id="gloveFill" x1="0" x2="0" y1="0" y2="1">
      <stop offset="0%" stop-color="#f8fafc" />
      <stop offset="100%" stop-color="#dbeafe" />
    </linearGradient>
    <linearGradient id="cuffFill" x1="0" x2="1" y1="0" y2="0">
      <stop offset="0%" stop-color="#1d4ed8" />
      <stop offset="100%" stop-color="#2563eb" />
    </linearGradient>
  </defs>

  <g transform="translate(18 8)">
    <rect x="58" y="36" width="24" height="64" rx="12" fill="url(#gloveFill)" stroke="#0f172a" stroke-width="4" />
    <rect x="84" y="30" width="24" height="74" rx="12" fill="url(#gloveFill)" stroke="#0f172a" stroke-width="4" />
    <rect x="110" y="34" width="24" height="68" rx="12" fill="url(#gloveFill)" stroke="#0f172a" stroke-width="4" />
    <rect x="136" y="48" width="24" height="58" rx="12" fill="url(#gloveFill)" stroke="#0f172a" stroke-width="4" />
    <path d="M60 102 C52 84, 42 82, 32 92 C18 107, 22 131, 40 145 L58 156 L58 102 Z" fill="url(#gloveFill)" stroke="#0f172a" stroke-width="4" />
    <path d="M58 86 C58 71, 69 60, 84 60 H130 C150 60, 166 76, 166 96 V136 C166 168, 140 194, 108 194 H92 C58 194, 30 166, 30 132 V116 C30 104, 40 94, 52 94 C64 94, 58 97, 58 108 Z" fill="url(#gloveFill)" stroke="#0f172a" stroke-width="4" />
    <rect x="56" y="170" width="96" height="28" rx="10" fill="url(#cuffFill)" stroke="#0f172a" stroke-width="4" />
  </g>
</svg>
